<?xml version="1.0" encoding="utf-8" ?>
<svg baseProfile="full" height="200mm" version="1.1" viewBox="0,0,200,200" width="200mm" xmlns="http://www.w3.org/2000/svg" xmlns:ev="http://www.w3.org/2001/xml-events" xmlns:xlink="http://www.w3.org/1999/xlink"><defs /><rect fill="#1a1a1a" height="200" width="200" x="0" y="0" /><text alignment-baseline="middle" fill="#e1ed5e" style="dominant-baseline: central; font-size:9.0px; font-family:Arial;" text-anchor="middle" x="100.0" y="100.0">2024</text><line stroke="#e1ed5e" stroke-width="0.3" x1="100.0" x2="100.0" y1="15.0" y2="10.0" /><path d="M 100.0 14.0 a86.0,86.0 0 0,1 42.35913384403234,11.155469271406648" fill="none" id="id13" stroke="none" /><text fill="#e1ed5e" style="font-size:6.75px; font-family:Arial;" text-anchor="middle"><textPath startOffset="22.145653131862478" xlink:href="#id13">January</textPath></text><path d="M 100.0 79.0 l 0.0 -22.936788808971038 a43.93678880897104,43.93678880897104 0 0,0 0.7542334050577333,0.006474186664749903 l -0.39374048020887853 22.933409020500722" fill="#e7ff1a" stroke="none" /><path d="M 100.72087961077811 79.0123766808444 l 0.5717299645535353 -16.645294105865833 a37.65511005737099,37.65511005737099 0 0,0 0.6458286011621618,0.027734658963342457 l -0.8573843263165334 16.633026878476663" fill="#ffc812" stroke="none" /><path d="M 101.08105385017728 79.02784411241856 l 1.1743711993699428 -22.782487531988913 a43.81273516830325,43.81273516830325 0 0,0 0.7507742951827913,0.045164717261158886 l -1.5652898466851966 22.758970836903064" fill="#e8ff1a" stroke="none" /><path d="M 101.44090949804482 79.04949213459386 l 1.1424837371522065 -16.61146279747922 a37.650704650605434,37.650704650605434 0 0,0 0.6444205057137097,0.04988222274236007 l -1.4274732376411496 16.589402807741806" fill="#ffc812" stroke="none" /><path d="M 102.51750503828377 79.15144685158666 l 1.665395153342545 -13.7918609256258 a34.8920469625099,34.8920469625099 0 0,0 0.5940324108916821,0.0769093885331128 l -1.9019053861250188 13.76123994089229" fill="#ffa40f" stroke="none" /><path d="M 102.87502721639298 79.19773525538626 l 3.1402906543779685 -22.72157884103929 a43.93755807455401,43.93755807455401 0 0,0 0.7462582802903758,0.10967426838743542 l -3.5298740402760265 22.66432349935297" fill="#e7ff1a" stroke="none" /><path d="M 103.23170211078529 79.25015418208739 l 1.3487984542991955 -8.660253639326395 a29.764659170086762,29.764659170086762 0 0,0 0.5041885181313136,0.08296402879227509 l -1.4972644754835798 8.635823612038452" fill="#ff5e08" stroke="none" /><path d="M 103.58742460773223 79.30868818359171 l 1.1456451091286393 -6.6077765461135956 a27.706356208809616,27.706356208809616 0 0,0 0.4679277241488991,0.08527201883254296 l -1.258907566828592 6.5871363533496865" fill="#ff4006" stroke="none" /><path d="M 105.3480935250658 79.69241777938227 l 3.713106924156706 -14.099271787759083 a35.58000781808157,35.58000781808157 0 0,0 0.5893042130484671,0.16061748378579502 l -3.954592538139866 14.033453809829146" fill="#ffad10" stroke="none" /><path d="M 106.38641147887787 79.99465700312896 l 2.5623547537684095 -8.026539770939848 a29.425615857528676,29.425615857528676 0 0,0 0.47988592199598096,0.1577480343056496 l -2.699763413412133 7.981370815232178" fill="#ff5908" stroke="none" /><line stroke="#e1ed5e" stroke-width="0.3" x1="143.13028292997686" x2="145.6673583964461" y1="26.7553504044142" y2="22.446841604673864" /><path d="M 143.63769802327073 25.89364864446614 a86.0,86.0 0 0,1 29.32050498858742,28.57503671076993" fill="none" id="id14" stroke="none" /><text fill="#e1ed5e" style="font-size:6.75px; font-family:Arial;" text-anchor="middle"><textPath startOffset="20.669276256404974" xlink:href="#id14">February</textPath></text><path d="M 111.27062007382361 82.28071324371311 l 2.9533213526045015 -4.643111699932478 a26.502780503509072,26.502780503509072 0 0,0 0.38178437559287426,0.247468019671334 l -3.0325913604543833 4.59172983855725" fill="#ff2f04" stroke="none" /><path d="M 111.5731344415666 82.4767994020092 l 3.971784856769225 -6.013788496853239 a28.206991538315116,28.206991538315116 0 0,0 0.40175313670126356,0.27031744004542896 l -4.074434281567489 5.944721382750691" fill="#ff4806" stroke="none" /><path d="M 114.65682725009322 84.96080404539774 l 19.35544424530728 -19.860390917256908 a48.732081590090914,48.732081590090914 0 0,0 0.5940860302832942,0.5890084024158576 l -19.693522195720536 19.52520250461239" fill="#aeff20" stroke="none" /><path d="M 116.1254893667686 86.54754324733833 l 11.169556035449318 -9.318040903798227 a35.545957112335344,35.545957112335344 0 0,0 0.3868638838681701,0.47191103513153526 l -11.327866738556116 9.124927586968196" fill="#ffad10" stroke="none" /><path d="M 116.35404254752997 86.82634096563983 l 38.298816489929074 -30.850815533316492 a70.17898091258078,70.17898091258078 0 0,0 0.7476854235004561,0.9446761076370982 l -38.822768344071086 30.188819481764714" fill="#3bffa0" stroke="none" /><line stroke="#e1ed5e" stroke-width="0.3" x1="172.87174338648825" x2="177.1583165268699" y1="56.24261187166439" y2="53.66864786411523" /><path d="M 173.72905801456457 55.72781907015455 a86.0,86.0 0 0,1 12.242430191666344,42.057860355516425" fill="none" id="id15" stroke="none" /><text fill="#e1ed5e" style="font-size:6.75px; font-family:Arial;" text-anchor="middle"><textPath startOffset="22.145653131862474" xlink:href="#id15">March</textPath></text><path d="M 120.26092885502905 94.47779374421319 l 33.13691422057993 -9.031613324131337 a55.34567109984458,55.34567109984458 0 0,0 0.24196737137558885,0.9187895211417522 l -33.28707107276025 8.461443298616786" fill="#65ff29" stroke="none" /><path d="M 120.43855184770803 95.1765574152323 l 15.93680005108105 -3.761041418398372 a37.37458483195971,37.37458483195971 0 0,0 0.14200409158961783,0.6256962290571563 l -15.999015004228333 3.4869108554021895" fill="#ffc512" stroke="none" /><path d="M 120.51834098615036 95.52812308129327 l 27.19717945221045 -5.927498676835452 a48.83562125621816,48.83562125621816 0 0,0 0.17148811927370183,0.8206327301226762 l -27.29492528230852 5.4597494954273715" fill="#adff20" stroke="none" /><path d="M 120.592083275326 95.88100663000786 l 59.16571684307076 -11.83480040115477 a81.33775393640039,81.33775393640039 0 0,0 0.2621155898246572,1.3714995254681335 l -59.36015872517758 10.81739831065332" fill="#4aebff" stroke="none" /><path d="M 120.65975698304385 96.23510406497455 l 2.2646064755466035 -0.4126867378554018 a23.301902003276712,23.301902003276712 0 0,0 0.0683358041738032,0.39414275894121364 l -2.2713570972126407 0.37375094599359543" fill="#ff0000" stroke="none" /><path d="M 120.77682067341334 96.94652285012252 l 16.469993030930652 -2.420521800187733 a37.64690950969844,37.64690950969844 0 0,0 0.08848006757396824,0.6401976926688902 l -16.509117615059836 2.137435799318757" fill="#ffc812" stroke="none" /><path d="M 120.9064616781168 98.02013634271609 l 8.053269103824874 -0.7626529570845342 a29.089300513120406,29.089300513120406 0 0,0 0.042811661767490544,0.49753640432748597 l -8.065174388290105 0.6242955053813862" fill="#ff5407" stroke="none" /><path d="M 120.93736805541906 98.37931529534042 l 19.46610966150083 -1.5068000000819097 a40.52434049062408,40.52434049062408 0 0,0 0.047733888577912484,0.6940402637743679 l -19.48910751124381 1.1724163121532076" fill="#ffed16" stroke="none" /><path d="M 120.96210409425399 98.7389718711861 l 28.00985866617899 -1.6850035427424408 a49.0604957090636,49.0604957090636 0 0,0 0.043356420039659865,0.8411029660087034 l -28.034656675675222 1.203928783357007" fill="#aaff21" stroke="none" /><path d="M 120.98066250479742 99.09900007780936 l 43.400903862955936 -1.8638215544711845 a64.44090568701871,64.44090568701871 0 0,0 0.03797506562302123,1.1056026011832008 l -43.426503615575804 1.1185126887238637" fill="#34ff5e" stroke="none" /><path d="M 120.99303781780057 99.45929381324524 l 28.14175392993533 -0.7248317555615387 a49.15108692975994,49.15108692975994 0 0,0 0.014484517307844358,0.8436505174906898 l -28.150049878841838 0.2416343221017826" fill="#a9ff21" stroke="none" /><line stroke="#e1ed5e" stroke-width="0.3" x1="184.99686870605535" x2="189.99668451229388" y1="99.2704041080226" y2="99.22748670261217" /><path d="M 185.99683186730306 99.26182062694052 a86.0,86.0 0 0,1 -10.086455211305974,41.156179273409016" fill="none" id="id16" stroke="none" /><text fill="#e1ed5e" style="font-size:6.75px; font-family:Arial;" text-anchor="middle"><textPath startOffset="21.40746469413373" xlink:href="#id16">April</textPath></text><path d="M 120.99922638620191 99.81974689727618 l 14.241830892433738 -0.12224898953973135 a35.24235556304235,35.24235556304235 0 0,0 0.0,0.6050041845271147 l -14.241830892433738 -0.12224898953972962" fill="#ffa90f" stroke="none" /><path d="M 120.96210409425399 101.26102812881392 l 16.094961466133515 0.9682329144875231 a37.124058408881424,37.124058408881424 0 0,0 -0.04372867383392599,0.6358053204205926 l -16.075968831134524 -1.2443816590624592" fill="#ffc112" stroke="none" /><path d="M 120.93736805541906 101.62068470465957 l 31.40179403854438 2.4306974574087805 a52.495729217921195,52.495729217921195 0 0,0 -0.07725965780791928,0.8978743351306685 l -31.35544075803872 -2.9693928399151064" fill="#84ff25" stroke="none" /><path d="M 120.9064616781168 101.97986365728391 l 31.397534550752273 2.973379165849831 a52.5380113439258,52.5380113439258 0 0,0 -0.09273611353763893,0.897137775056183 l -31.34186604473297 -3.5119214631889455" fill="#83ff25" stroke="none" /><path d="M 120.86939407059847 102.33845913500097 l 14.234132386651282 1.594964223483249 a35.32321317564276,35.32321317564276 0 0,0 -0.0726950276217353,0.6020191117592814 l -14.204655272769884 -1.839077012165939" fill="#ffaa0f" stroke="none" /><path d="M 120.7213421655516 103.40968896794604 l 16.660812893889524 2.7415304215066487 a37.88486527447708,37.88486527447708 0 0,0 -0.11110220677194216,0.6408080043980542 l -16.611295869625348 -3.027131458825291" fill="#ffcb12" stroke="none" /><path d="M 120.43855184770803 104.8234425847677 l 13.452462329983902 3.1747444807203498 a34.82200221594181,34.82200221594181 0 0,0 -0.14229343532404728,0.580605773875994 l -13.395981368143559 -3.405206079204443" fill="#ffa30f" stroke="none" /><path d="M 120.35273937422433 105.17358676015961 l 13.8938066809804 3.531751326996826 a35.335659438065605,35.335659438065605 0 0,0 -0.1544850113864779,0.5866047509977537 l -13.831132188789192 -3.769736582367383" fill="#ffaa0f" stroke="none" /><path d="M 119.83427380445688 106.89939002012753 l 59.50282141337066 20.698170060382587 a84.0,84.0 0 0,0 -0.48543931982422706,1.3578601744763141 l -59.13874192350249 -21.716565191239823" fill="#4dd2ff" stroke="none" /><line stroke="#e1ed5e" stroke-width="0.3" x1="174.33088141563837" x2="178.70328620479359" y1="141.23008692659167" y2="143.65538615756765" /><path d="M 175.20536237346943 141.71514677278685 a86.0,86.0 0 0,1 -30.301960400862466,31.631185727798858" fill="none" id="id17" stroke="none" /><text fill="#e1ed5e" style="font-size:6.75px; font-family:Arial;" text-anchor="middle"><textPath startOffset="22.145653131862474" xlink:href="#id17">May</textPath></text><path d="M 115.6541949942343 113.99807769240083 l 13.89828296773234 12.42793033081191 a39.64445552325606,39.64445552325606 0 0,0 -0.45799219327684554,0.5034136488346435 l -13.682893073613615 -12.664681555204224" fill="#ffe215" stroke="none" /><path d="M 115.16444852881244 114.52719865689866 l 17.719004661580925 16.974405645693306 a45.53759509857621,45.53759509857621 0 0,0 -0.5456123795548613,0.559846367250467 l -17.425005480875257 -17.27607470501151" fill="#d4ff1c" stroke="none" /><path d="M 114.91283532996324 114.78537596483092 l 10.254951643521736 10.16730301084893 a35.440847749539735,35.440847749539735 0 0,0 -0.4320544467298059,0.4283616958702729 l -10.078905276661965 -10.341844716947863" fill="#ffab0f" stroke="none" /><path d="M 114.65682725009322 115.03919595460226 l 9.942905529026337 10.202296994949867 a35.2459901141446,35.2459901141446 0 0,0 -0.43692861855385945,0.4185677328493858 l -9.766304424607165 -10.371476858104833" fill="#ffa90f" stroke="none" /><path d="M 114.39649973595853 115.28858382429668 l 10.290111430778492 10.927741746687559 a36.01006105717549,36.01006105717549 0 0,0 -0.4536757185188058,0.4199154720757981 l -10.101005940945718 -11.102774964895737" fill="#ffb310" stroke="none" /><path d="M 113.86319453409587 115.77377054828091 l 9.518460461403967 10.83026072539075 a35.41858650961501,35.41858650961501 0 0,0 -0.4601389141722606,0.39745703479984634 l -9.33114206746885 -10.992061892655315" fill="#ffab0f" stroke="none" /><path d="M 113.59037401385872 116.0094264158162 l 14.19490175817168 16.721558578553463 a42.93412312403075,42.93412312403075 0 0,0 -0.5659651057611901,0.4721482204725016 l -13.905762318248595 -16.962768982937835" fill="#f3ff19" stroke="none" /><path d="M 113.31354834802062 116.24036423190432 l 9.358763299570041 11.416169511848667 a35.76195707962336,35.76195707962336 0 0,0 -0.47810199527108477,0.3851251243258996 l -9.161410533943704 -11.57514292996797" fill="#ffb010" stroke="none" /><path d="M 111.5731344415666 117.5232005979908 l 9.100049783832846 13.778635219260451 a37.51247088032802,37.51247088032802 0 0,0 -0.5403838767066556,0.35027030014847815 l -8.86218027486918 -13.932819361112823" fill="#ffc612" stroke="none" /><path d="M 111.27062007382361 117.71928675628689 l 3.003488737675773 4.721983161845695 a26.59625496006923,26.59625496006923 0 0,0 -0.3873375622211257,0.24172728618822137 l -2.921987046664932 -4.772846244875464" fill="#ff3004" stroke="none" /><line stroke="#e1ed5e" stroke-width="0.3" x1="143.1302829299769" x2="145.66735839644613" y1="173.24464959558577" y2="177.55315839532614" /><path d="M 143.63769802327073 174.10635135553383 a86.0,86.0 0 0,1 -40.68552437913181,11.842963189579606" fill="none" id="id18" stroke="none" /><text fill="#e1ed5e" style="font-size:6.75px; font-family:Arial;" text-anchor="middle"><textPath startOffset="21.407464694133747" xlink:href="#id18">June</textPath></text><path d="M 110.34350942703117 118.27599006163325 l 8.160022321901073 14.417977564561875 a37.56695630905488,37.56695630905488 0 0,0 -0.5639619671293156,0.31282019646737597 l -7.911316166615663 -14.555930676462394" fill="#ffc712" stroke="none" /><path d="M 110.02825361518725 118.45085714620011 l 6.965397012887468 12.815545974697198 a35.586122657400054,35.586122657400054 0 0,0 -0.539233439636963,0.2871114341624095 l -6.744374757463951 -12.933227876582176" fill="#ffad10" stroke="none" /><line stroke="#e1ed5e" stroke-width="0.3" x1="101.45913802915013" x2="101.54496967792366" y1="184.9874750549273" y2="189.98673829345242" /><path d="M 101.47630435890484 185.9873277026323 a86.0,86.0 0 0,1 -42.54439059252881,-10.42667462771756" fill="none" id="id19" stroke="none" /><text fill="#e1ed5e" style="font-size:6.75px; font-family:Arial;" text-anchor="middle"><textPath startOffset="22.145653131862474" xlink:href="#id19">July</textPath></text><path d="M 93.27111125876986 119.89276391827306 l -8.251764099837674 24.39487431877837 a46.752698961242146,46.752698961242146 0 0,0 -0.7580487684580788,-0.2636887117437311 l 8.669318640340775 -24.24962717446605" fill="#c5ff1e" stroke="none" /><path d="M 92.59220618246901 119.65005319985036 l -10.242514585229186 27.169486821256932 a50.03601417479828,50.03601417479828 0 0,0 -0.8011188495159133,-0.3098899809857549 l 10.707405697238627 -26.98965695213314" fill="#9fff22" stroke="none" /><path d="M 92.25597844496254 119.51999308798841 l -4.570224548318023 11.519951353401312 a33.39339467647107,33.39339467647107 0 0,0 -0.531027389424495,-0.21596421634009644 l 4.767306398932958 -11.439799880481925" fill="#ff900d" stroke="none" /><path d="M 89.97174638481275 118.45085714620012 l -2.635448866376297 4.848929077340265 a26.518849873330495,26.518849873330495 0 0,0 -0.39810578790396384,-0.22082256968644412 l 2.7182988424363637 -4.802973592220672" fill="#ff2f04" stroke="none" /><line stroke="#e1ed5e" stroke-width="0.3" x1="58.13341422392154" x2="55.67067388415222" y1="173.97424548756322" y2="178.32567169271397" /><path d="M 57.64086615596768 174.84453072859336 a86.0,86.0 0 0,1 -31.369924170532247,-30.572349798747897" fill="none" id="id20" stroke="none" /><text fill="#e1ed5e" style="font-size:6.75px; font-family:Arial;" text-anchor="middle"><textPath startOffset="22.145653131862474" xlink:href="#id20">August</textPath></text><line stroke="#e1ed5e" stroke-width="0.3" x1="26.387840678322732" x2="22.057713659400548" y1="142.50000000000003" y2="145.00000000000006" /><path d="M 25.521815274538298 143.00000000000003 a86.0,86.0 0 0,1 -11.493303480769221,-40.785679425670985" fill="none" id="id21" stroke="none" /><text fill="#e1ed5e" style="font-size:6.75px; font-family:Arial;" text-anchor="middle"><textPath startOffset="21.40746469413373" xlink:href="#id21">September</textPath></text><path d="M 80.5471966667186 107.91128576633889 l -11.459796768822576 4.66059958089492 a33.37126228143896,33.37126228143896 0 0,0 -0.2112580869403566,-0.5325083830861672 l 11.538113530729058 -4.463190180595188" fill="#ff8f0d" stroke="none" /><path d="M 80.41425534168474 107.57618678355246 l -15.296256947702023 5.916920788396056 a37.40077523247837,37.40077523247837 0 0,0 -0.22648719100591685,-0.6007841824401979 l 15.395574822522375 -5.653468325761713" fill="#ffc512" stroke="none" /><path d="M 79.73907114497094 105.5222062557868 l -11.6798882500586 3.1834054807094803 a33.105943168067,33.105943168067 0 0,0 -0.1447368490813927,-0.5495893909292465 l 11.732814579944725 -2.982435585407431" fill="#ff8c0c" stroke="none" /><line stroke="#e1ed5e" stroke-width="0.3" x1="15.003131293944662" x2="10.003315487706104" y1="100.72959589197737" y2="100.7725132973878" /><path d="M 14.003168132696942 100.73817937305945 a86.0,86.0 0 0,1 10.791469493833604,-42.45332614584628" fill="none" id="id22" stroke="none" /><text fill="#e1ed5e" style="font-size:6.75px; font-family:Arial;" text-anchor="middle"><textPath startOffset="22.145653131862435" xlink:href="#id22">October</textPath></text><line stroke="#e1ed5e" stroke-width="0.3" x1="26.387840678322718" x2="22.05771365940052" y1="57.49999999999999" y2="54.99999999999999" /><path d="M 25.521815274538284 56.99999999999999 a86.0,86.0 0 0,1 29.574782752854787,-30.34633250058573" fill="none" id="id23" stroke="none" /><text fill="#e1ed5e" style="font-size:6.75px; font-family:Arial;" text-anchor="middle"><textPath startOffset="21.40746469413373" xlink:href="#id23">November</textPath></text><path d="M 84.83555147118756 85.47280134310135 l -12.389539099670877 -11.868898194771807 a38.157255708886865,38.157255708886865 0 0,0 0.4571842461057061,-0.4691113122382685 l 12.183968052414368 12.079832199077806" fill="#ffcf13" stroke="none" /><path d="M 85.34317274990677 84.96080404539775 l -15.309706866577338 -15.709107956669925 a42.93543245835002,42.93543245835002 0 0,0 0.5322511619133597,-0.5098845731046219 l 15.037783218798678 15.969604660080115" fill="#f3ff19" stroke="none" /><path d="M 87.54013794807813 83.09580414077388 l -5.076947205949952 -6.88785394081399 a29.5567473283947,29.5567473283947 0 0,0 0.41100626149855923,-0.29753683742587794 l 4.957959934077425 6.973991549612947" fill="#ff5b08" stroke="none" /><path d="M 87.83215693770416 82.88440491214696 l -14.251261430471784 -20.046183936322844 a45.59568951602172,45.59568951602172 0 0,0 0.6418242686787096,-0.44804318612242455 l 13.90504207061931 20.287871938250397" fill="#d3ff1c" stroke="none" /><path d="M 88.4268655584334 82.4767994020092 l -9.342545156809532 -14.145804121186726 a37.952490207695405,37.952490207695405 0 0,0 0.5467225514024947,-0.3543789525046241 l 9.09833697315001 14.304096915395258" fill="#ffcc13" stroke="none" /><line stroke="#e1ed5e" stroke-width="0.3" x1="56.869717070023135" x2="54.33264160355391" y1="26.7553504044142" y2="22.446841604673864" /><path d="M 56.362301976729285 25.89364864446614 a86.0,86.0 0 0,1 42.16139366436587,-11.88097634709845" fill="none" id="id24" stroke="none" /><text fill="#e1ed5e" style="font-size:6.75px; font-family:Arial;" text-anchor="middle"><textPath startOffset="22.145653131862474" xlink:href="#id24">December</textPath></text><path d="M 95.00130118170881 79.60360301121753 l -7.408170531481236 -30.22786381283613 a52.12241541575581,52.12241541575581 0 0,0 0.8708609351809603,-0.20552080947131712 l 6.88817744256037 30.350580765953676" fill="#88ff25" stroke="none" /><path d="M 95.35216902796891 79.52079915486377 l -6.23644673161396 -27.47893500113741 a49.17774186539782,49.17774186539782 0 0,0 0.824868997656978,-0.1797763588230092 l 5.763815317337863 27.58194281809413" fill="#a9ff21" stroke="none" /><path d="M 96.05791012581881 79.37332000966035 l -1.567934806095678 -8.2040974516768 a29.352582507989734,29.352582507989734 0 0,0 0.4957305474362526,-0.09033861939627426 l 1.4268695251083867 8.229804245004436" fill="#ff5808" stroke="none" /><path d="M 98.9189461498227 79.02784411241856 l -0.9307672510974282 -18.056636014819798 a39.08060927754933,39.08060927754933 0 0,0 0.6702775581808507,-0.028784602375115362 l 0.6206639323157574 18.06995318562074" fill="#ffdb14" stroke="none" /></svg>