<?xml version="1.0" encoding="utf-8" ?>
<svg baseProfile="full" height="200mm" version="1.1" viewBox="0,0,200,200" width="200mm" xmlns="http://www.w3.org/2000/svg" xmlns:ev="http://www.w3.org/2001/xml-events" xmlns:xlink="http://www.w3.org/1999/xlink"><defs /><rect fill="#1a1a1a" height="200" width="200" x="0" y="0" /><text alignment-baseline="middle" fill="#e1ed5e" style="dominant-baseline: central; font-size:9.0px; font-family:Arial;" text-anchor="middle" x="100.0" y="100.0">2023</text><line stroke="#e1ed5e" stroke-width="0.3" x1="100.0" x2="100.0" y1="15.0" y2="10.0" /><path d="M 100.0 14.0 a86.0,86.0 0 0,1 42.46469731375804,11.215312516191453" fill="none" id="id1" stroke="none" /><text fill="#e1ed5e" style="font-size:6.75px; font-family:Arial;" text-anchor="middle"><textPath startOffset="22.20632615414155" xlink:href="#id1">January</textPath></text><line stroke="#e1ed5e" stroke-width="0.3" x1="143.23703022742887" x2="145.7803849466894" y1="26.81831364943548" y2="22.513508569990506" /><path d="M 143.74570117128098 25.957352633546492 a86.0,86.0 0 0,1 28.547481713284135,27.462654790039103" fill="none" id="id2" stroke="none" /><text fill="#e1ed5e" style="font-size:6.75px; font-family:Arial;" text-anchor="middle"><textPath startOffset="19.985693538727396" xlink:href="#id2">February</textPath></text><line stroke="#e1ed5e" stroke-width="0.3" x1="172.23445277983987" x2="176.4835382374775" y1="55.19839476539836" y2="52.563006222186495" /><path d="M 173.08426987136738 54.67131705675599 a86.0,86.0 0 0,1 12.851231095245387,41.99856678651699" fill="none" id="id3" stroke="none" /><text fill="#e1ed5e" style="font-size:6.75px; font-family:Arial;" text-anchor="middle"><textPath startOffset="22.20632615414155" xlink:href="#id3">March</textPath></text><path d="M 120.08093135843002 93.85539295169968 l 4.670836310625883 -1.4292391723992588 a25.88461221107487,25.88461221107487 0 0,0 0.1267040709928056,0.4271831394200228 l -4.694746278730391 1.3486266462327061" fill="#ff2a04" stroke="none" /><path d="M 120.18372546131832 94.20196356495316 l 7.0930550818549305 -2.037571898171415 a28.379913931371146,28.379913931371146 0 0,0 0.13083576755927157,0.470685868201885 l -7.127077619980565 1.9151747265505779" fill="#ff4e07" stroke="none" /><path d="M 120.45610955862082 95.25157060432595 l 11.46580060727443 -2.66152977390438 a32.77065521978935,32.77065521978935 0 0,0 0.12282069082944749,0.5505810742711004 l -11.509915685105916 2.4637705300833157" fill="#ff8b0c" stroke="none" /><path d="M 120.67395015179393 96.31383870115 l 6.416889355542806 -1.1441301264505497 a27.51809042185902,27.51809042185902 0 0,0 0.07913172643305938,0.4670399287981131 l -6.435632943496088 1.0335044093365988" fill="#ff4206" stroke="none" /><path d="M 120.73433829027371 96.67025291283417 l 3.7036300038047854 -0.5947694613863734 a24.75108329916584,24.75108329916584 0 0,0 0.06393335237965317,0.4212409114466373 l -3.7133192496237384 0.5309294375476541" fill="#ff1a02" stroke="none" /><path d="M 120.78858239683441 97.02765380044208 l 27.61030452303902 -3.947714286193391 a48.891098292113995,48.891098292113995 0 0,0 0.11194664839721108,0.8341325597322885 l -27.674167170494066 3.471863384396438" fill="#aaff21" stroke="none" /><path d="M 120.83666639777658 97.38593545837742 l 23.03476638892335 -2.8898272349491263 a44.215330366809916,44.215330366809916 0 0,0 0.08824042321441425,0.7559900585827803 l -23.081097165141355 2.4928934380414933" fill="#e1ff1b" stroke="none" /><line stroke="#e1ed5e" stroke-width="0.3" x1="184.98032266829074" x2="189.97916517819016" y1="98.17113171792111" y2="98.06355123074" /><path d="M 185.9800911702706 98.14961562048488 a86.0,86.0 0 0,1 -9.607161424134198,41.387399972396054" fill="none" id="id4" stroke="none" /><text fill="#e1ed5e" style="font-size:6.75px; font-family:Arial;" text-anchor="middle"><textPath startOffset="21.466115282336823" xlink:href="#id4">April</textPath></text><path d="M 120.99980553446 99.90962569577887 l 7.085069985247356 -0.030491152369197763 a28.0851355954721,28.0851355954721 0 0,0 -0.002080577217645302,0.4834528724346418 l -7.084545110740208 -0.09147119826912872" fill="#ff4a06" stroke="none" /><path d="M 120.99824983174949 100.27111621757518 l 7.799854764866376 0.10070682739896573 a28.80050486943592,28.80050486943592 0 0,0 -0.010667072453076673,0.4956569414381205 l -7.796965629728293 -0.23495358462720106" fill="#ff5407" stroke="none" /><path d="M 120.9904718944345 100.63252640178507 l 28.096292313472055 0.8466530323815186 a49.10904593047067,49.10904593047067 0 0,0 -0.032734376225661374,0.8447287984533444 l -28.077555804395192 -1.3301590778488692" fill="#a8ff21" stroke="none" /><path d="M 120.89721153311464 102.0752229133903 l 11.479866120552146 1.1400220157733196 a32.53633288104365,32.53633288104365 0 0,0 -0.06014216952560782,0.5568417957060899 l -11.458541649525486 -1.337460133364201" fill="#ff870c" stroke="none" /><path d="M 120.8583938346157 102.4346265915055 l 7.179341760738502 0.8379847700062364 a28.228081805862896,28.228081805862896 0 0,0 -0.0604867180057303,0.4821386559183825 l -7.1638535334859235 -0.9614411802120137" fill="#ff4c07" stroke="none" /><path d="M 120.81339534386255 102.79330883721812 l 11.573240484763783 1.5532129374976722 a32.67700157349418,32.67700157349418 0 0,0 -0.07961665692570671,0.5568387131037229 l -11.544789776821474 -1.7521971225818045" fill="#ff890c" stroke="none" /><path d="M 120.76222939487914 103.15116336523771 l 7.252074958431622 1.1006752934058166 a28.335126263686604,28.335126263686604 0 0,0 -0.07733903463742364,0.4815902425131106 l -7.232054169432911 -1.2253447656121321" fill="#ff4d07" stroke="none" /><path d="M 120.70491114924044 103.5080841355445 l 10.73042053776995 1.8180816031974416 a31.883351764657803,31.883351764657803 0 0,0 -0.09633867141041158,0.5403184312770793 l -10.69753542402035 -2.002518785207739" fill="#ff7f0b" stroke="none" /><path d="M 120.64145759157962 103.86396538481128 l 16.807277616587154 3.146228343384947 a38.09922026496385,38.09922026496385 0 0,0 -0.12621739559087955,0.6435797808767 l -16.75063028802061 -3.435071851329592" fill="#ffd113" stroke="none" /><path d="M 120.5718875245553 104.21870165774334 l 6.647688326682104 1.363249421350366 a27.78603043564628,27.78603043564628 0 0,0 -0.10011698585452652,0.4677132272515564 l -6.623237302103134 -1.4774764680180916" fill="#ff4506" stroke="none" /><path d="M 120.32669344350535 105.2749913415812 l 9.15276236889309 2.3752383722246613 a30.455940794353246,30.455940794353246 0 0,0 -0.1360538282256771,0.5063069080941626 l -9.110520464325635 -2.532436213494372" fill="#ff6b09" stroke="none" /><path d="M 120.23288151984713 105.62410040840565 l 18.198476872991094 5.058600333983642 a39.888462029391675,39.888462029391675 0 0,0 -0.18957915303916814,0.659949902177689 l -18.108705083065825 -5.371107711665913" fill="#ffe815" stroke="none" /><path d="M 120.13307415673323 105.97154293290107 l 9.167532999887383 2.7191235909348914 a30.562284999245882,30.562284999245882 0 0,0 -0.15393673923607823,0.5030741705436274 l -9.119369488145173 -2.876524734030576" fill="#ff6c0a" stroke="none" /><path d="M 120.02730092923936 106.31721596034902 l 4.5557571941709964 1.4370234990814084 a25.77702419390492,25.77702419390492 0 0,0 -0.1371187308667076,0.4220080606268332 l -4.530346212288042 -1.5152304596860369" fill="#ff2903" stroke="none" /><path d="M 119.9155931802556 106.66101706037122 l 14.954183789224157 5.001612176066275 a36.76844117729045,36.76844117729045 0 0,0 -0.20591932449399175,0.5984979456787265 l -14.865873633786935 -5.258282824834302" fill="#ffc011" stroke="none" /><path d="M 119.54520255179757 107.68017299344265 l 8.53901676027415 3.3553566783977984 a30.174596757978605,30.174596757978605 0 0,0 -0.1941194827542986,0.4817886365732579 l -8.479994663262458 -3.5018446828138696" fill="#ff6709" stroke="none" /><path d="M 119.41010516605496 108.01547362559984 l 6.722926246553029 2.776256880376869 a28.273605679608394,28.273605679608394 0 0,0 -0.1896337913394478,0.4482382658100704 l -6.674141474021272 -2.891569671853103" fill="#ff4c07" stroke="none" /><path d="M 119.26925614724726 108.34839909993367 l 17.93209784397244 7.769075690133903 a40.54273957675409,40.54273957675409 0 0,0 -0.28294761592340817,0.6379721779181969 l -17.795709143317758 -8.076596204544787" fill="#fff016" stroke="none" /><path d="M 119.12269723197855 108.67885076344098 l 17.971293498705965 8.156285298521597 a40.73556130155691,40.73556130155691 0 0,0 -0.2952850679701923,0.636017766614931 l -17.828233813895938 -8.464423132415359" fill="#fff216" stroke="none" /><path d="M 118.97047184881838 109.00673069616215 l 17.702440871806683 8.404699623063301 a40.59631058576415,40.59631058576415 0 0,0 -0.3051426390200225,0.6286842166454428 l -17.555144976171945 -8.708172795674018" fill="#fff116" stroke="none" /><path d="M 118.81262510543309 109.33194174019688 l 13.818873797006352 6.8548075808704505 a36.42561700511029,36.42561700511029 0 0,0 -0.2834629897538582,0.5592993709251681 l -13.698832137466226 -7.091661163498313" fill="#ffbb11" stroke="none" /><path d="M 118.64920377521936 109.65438752849418 l 13.155562504292797 6.810419367101166 a35.813866367702296,35.813866367702296 0 0,0 -0.28812680445676964,0.5450273306109209 l -13.036383191611135 -7.035861712798221" fill="#ffb310" stroke="none" /><line stroke="#e1ed5e" stroke-width="0.3" x1="174.80103733775053" x2="179.2010983576182" y1="140.37084112569926" y2="142.7455964860345" /><path d="M 175.68104954172406 140.8457921977663 a86.0,86.0 0 0,1 -30.038265399797805,32.042727171017184" fill="none" id="id5" stroke="none" /><text fill="#e1ed5e" style="font-size:6.75px; font-family:Arial;" text-anchor="middle"><textPath startOffset="22.206326154141568" xlink:href="#id5">May</textPath></text><path d="M 118.48025628344425 109.97397251340804 l 10.23522803673 5.524051265363849 a32.6307796534124,32.6307796534124 0 0,0 -0.2710275118830865,0.491993659330258 l -10.138624115395404 -5.699415443091913" fill="#ff890c" stroke="none" /><path d="M 118.30583269289576 110.29060199501025 l 22.66122143304252 12.738978575868718 a46.99639459605558,46.99639459605558 0 0,0 -0.4024860836255092,0.7017684124540264 l -22.43858335326463 -13.12716683418106" fill="#c0ff1e" stroke="none" /><path d="M 117.94076556474637 110.91462005526583 l 14.295960386032863 8.697230637988438 a37.73368770263703,37.73368770263703 0 0,0 -0.34236198967040493,0.5519965377793885 l -14.144133756694496 -8.9420235071331" fill="#ffcc13" stroke="none" /><path d="M 117.75023020441432 111.22182372390056 l 11.742252524294058 7.423536846095903 a34.892062253302555,34.892062253302555 0 0,0 -0.32531886171151614,0.5049020977606973 l -11.612728799205492 -7.6245605437780535" fill="#ffa70f" stroke="none" /><path d="M 117.55443506779139 111.5257021239791 l 11.717994188265523 7.693674560468728 a35.0179890154982,35.0179890154982 0 0,0 -0.33516700223222,0.5010291922811309 l -11.583824080622582 -7.894240666955666" fill="#ffa90f" stroke="none" /><path d="M 117.14729908036423 112.12312394758627 l 7.632850944634788 5.396418272147669 a30.347820265226616,30.347820265226616 0 0,0 -0.30524156654138357,0.4239538387441251 l -7.538829585717801 -5.527005716342925" fill="#ff6909" stroke="none" /><path d="M 116.93607887273984 112.41649034213515 l 7.490198894139699 5.491352687277103 a30.287520326213937,30.287520326213937 0 0,0 -0.3118730966803407,0.4178049785763813 l -7.394564530764266 -5.619470545362799" fill="#ff6909" stroke="none" /><path d="M 116.0416608686014 113.55231037782055 l 10.67782979397934 9.020840467509787 a34.97825496438862,34.97825496438862 0 0,0 -0.39251846592863193,0.4565876531955187 l -10.520968818479929 -9.203305219866834" fill="#ffa80f" stroke="none" /><path d="M 115.32070863581623 114.36230785411682 l 7.03346294445117 6.593478310303291 a30.64072389498878,30.64072389498878 0 0,0 -0.364031422514558,0.3816854911280661 l -6.918924970557647 -6.713570918013864" fill="#ff6d0a" stroke="none" /><path d="M 115.07121518719521 114.62390073753431 l 13.544772512645386 13.142762960859308 a39.87307819791592,39.87307819791592 0 0,0 -0.4821972388692609,0.48846325717458 l -13.31653464872059 -13.373966712014553" fill="#ffe715" stroke="none" /><path d="M 114.81725581225074 114.88116024355365 l 6.1247175638989075 6.151132481598332 a29.68035690762228,29.68035690762228 0 0,0 -0.36513912478988764,0.3573654852054106 l -6.017928486733226 -6.255648069726314" fill="#ff6008" stroke="none" /><path d="M 114.55890576462653 115.13401014063108 l 8.36985360212158 8.700478685552843 a33.07281154821473,33.07281154821473 0 0,0 -0.4136686880791373,0.39114956447647786 l -8.218849079651635 -8.843262886775243" fill="#ff8f0d" stroke="none" /><path d="M 114.0293411484842 115.62618273729858 l 18.60612296810575 20.723901033918604 a48.8508148169479,48.8508148169479 0 0,0 -0.6305422344227571,0.5563802099895867 l -18.246638380776407 -21.04110438568048" fill="#abff21" stroke="none" /><path d="M 113.20401910651253 116.32954008644616 l 8.221248457674914 10.167298696502291 a34.0752777785682,34.0752777785682 0 0,0 -0.4592739075618416,0.364874968726416 l -8.045017057395722 -10.307307579233834" fill="#ff9c0e" stroke="none" /><path d="M 112.92097659922987 116.55440617244103 l 2.90793515410484 3.7256579867995927 a25.72616274530219,25.72616274530219 0 0,0 -0.35143319132038814,0.26946398522442033 l -2.8433732342909583 -3.775161313851384" fill="#ff2803" stroke="none" /><path d="M 112.34349029814194 116.9893568818739 l 12.005134707020249 16.523650363563664 a41.4243550858038,41.4243550858038 0 0,0 -0.5804788411064825,0.41415624046033844 l -11.71892853806488 -16.72785086586822" fill="#fffb17" stroke="none" /><path d="M 111.45004920935366 117.60387380957326 l 3.9684133139831044 6.101235542858634 a28.278281347958448,28.278281347958448 0 0,0 -0.41032890159808555,0.26189131903993956 l -3.8628026103380884 -6.168641290722381" fill="#ff4c07" stroke="none" /><path d="M 111.1453310114006 117.79835938074945 l 6.643484506746869 10.609207090446256 a33.51763402082681,33.51763402082681 0 0,0 -0.4916251641652925,0.301996329588855 l -6.4598801426492685 -10.721991886863488" fill="#ff950d" stroke="none" /><line stroke="#e1ed5e" stroke-width="0.3" x1="143.8653032363475" x2="146.44561519142675" y1="172.8068346515853" y2="177.08958963109032" /><path d="M 144.38136562736335 173.6633856474863 a86.0,86.0 0 0,1 -40.68145358897372,12.25698825130547" fill="none" id="id6" stroke="none" /><text fill="#e1ed5e" style="font-size:6.75px; font-family:Arial;" text-anchor="middle"><textPath startOffset="21.466115282336833" xlink:href="#id6">June</textPath></text><path d="M 110.21172684928248 118.3499491758327 l 5.6580977422418774 10.167311321035514 a32.63564736315172,32.63564736315172 0 0,0 -0.49322904728397343,0.26894780295547627 l -5.482245883089255 -10.26319977575076" fill="#ff890c" stroke="none" /><path d="M 109.57404056367764 118.69057910512821 l 7.541434212307633 14.722495875567096 a37.54161765924525,37.54161765924525 0 0,0 -0.5776870021834749,0.2896642554802371 l -7.286893302441397 -14.850127971956637" fill="#ffca12" stroke="none" /><path d="M 108.92500713936063 119.00905698771935 l 5.567754053731401 11.858562402065221 a34.10058729395432,34.10058729395432 0 0,0 -0.5334825851995658,0.24489568919666144 l -5.3628034727644165 -11.952645161595958" fill="#ff9d0e" stroke="none" /><path d="M 108.59647513512805 119.15986991738527 l 3.176005539387434 7.078698191413063 a28.758542341917988,28.758542341917988 0 0,0 -0.45339803792326805,0.19875637568545765 l -3.053686826806412 -7.132319120392976" fill="#ff5307" stroke="none" /><path d="M 108.2653958097858 119.30500536409082 l 4.315991068463281 10.080609887962638 a31.96569535489405,31.96569535489405 0 0,0 -0.507689129422219,0.2122140972732951 l -4.141830479543601 -10.153409028255906" fill="#ff800b" stroke="none" /><path d="M 107.2578585660854 119.70592522655815 l 4.0504954574761145 10.997563522182103 a32.719766075970334,32.719766075970334 0 0,0 -0.5301855417344515,0.19010567216792548 l -3.860590355111928 -11.06565673538999" fill="#ff8a0c" stroke="none" /><path d="M 106.91757812671514 119.82793768551818 l 3.848214232457877 11.0301829056366 a32.68219532924738,32.68219532924738 0 0,0 -0.5327668883456651,0.18074345462623356 l -3.6577776111749847 -11.094789347160958" fill="#ff890c" stroke="none" /><path d="M 106.2309692047433 120.05430185196036 l 6.7548179912162345 21.74030307320119 a43.765507765237736,43.765507765237736 0 0,0 -0.7213494044704062,0.21733665824753898 l -6.379593612305582 -21.853355100554456" fill="#e7ff1a" stroke="none" /><path d="M 105.88484417918355 120.15858648285463 l 0.8220421529621428 2.815912763103681 a23.93344814010012,23.93344814010012 0 0,0 -0.3964619356059821,0.11204410315348666 l -0.7734490492515549 -2.8296456595956867" fill="#ff0e01" stroke="none" /><path d="M 104.83641907484287 120.43548508189849 l 2.749057729634365 11.615686596605782 a32.936561209637794,32.936561209637794 0 0,0 -0.5528321035564754,0.1258227869026513 l -2.5487054766850274 -11.661286117086119" fill="#ff8d0d" stroke="none" /><path d="M 104.48393922423573 120.51570834832081 l 3.1211124763315685 14.280263421196976 a35.61736181630218,35.61736181630218 0 0,0 -0.6000822253317594,0.12575306480846024 l -2.8748387895704313 -14.331872466731978" fill="#ffb110" stroke="none" /><path d="M 104.13013068566511 120.58985236759428 l 0.9143016295852942 4.558048402185241 a25.648844233411758,25.648844233411758 0 0,0 -0.4336271596031886,0.0831056771792892 l -0.8357068554104011 -4.573111277712998" fill="#ff2703" stroke="none" /><path d="M 103.7750983002368 120.6578951692458 l 2.1192518020257127 11.596858699212198 a32.78890834173728,32.78890834173728 0 0,0 -0.5560858776294483,0.09668265777451479 l -1.9193169529242147 -11.63161993550772" fill="#ff8b0c" stroke="none" /><path d="M 103.06178313531738 120.77559828337769 l 0.5829696913846107 3.955715863702374 a24.998442403664168,24.998442403664168 0 0,0 -0.42624892807690024,0.05907421744238014 l -0.51479217212088 -3.9651646466373567" fill="#ff1d03" stroke="none" /><path d="M 102.70371172650421 120.8252237178851 l 0.6037797921242881 4.650587976545836 a25.689618168355537,25.689618168355537 0 0,0 -0.43901426061446813,0.05315851308350041 l -0.5236381084584396 -4.660292018354688" fill="#ff2703" stroke="none" /><path d="M 102.34483914955558 120.86867818915974 l 1.7537354934783966 15.607954025010315 a36.70617130391496,36.70617130391496 0 0,0 -0.6284925097285067,0.06514581838419183 l -1.4848103871442873 -15.635829211850266" fill="#ffbf11" stroke="none" /><path d="M 101.98527174616119 120.90594882070398 l 1.1027289722129623 11.612312269476025 a32.664553460376496,32.664553460376496 0 0,0 -0.5602059303423705,0.048336924893560576 l -0.9026787241290499 -11.62957344664825" fill="#ff890c" stroke="none" /><path d="M 100.90346689309514 120.98055641714683 l 0.6242125376960664 14.495635051503282 a35.50906877916662,35.50906877916662 0 0,0 -0.6108906609951381,0.021040309548612864 l -0.3746015250262761 -14.504232159477988" fill="#ffaf10" stroke="none" /><line stroke="#e1ed5e" stroke-width="0.3" x1="102.19456741930631" x2="102.32365962044197" y1="184.97166512339345" y2="189.96999836594603" /><path d="M 102.22038585953345 185.97133177190398 a86.0,86.0 0 0,1 -42.740103519485714,-10.115201625700543" fill="none" id="id7" stroke="none" /><text fill="#e1ed5e" style="font-size:6.75px; font-family:Arial;" text-anchor="middle"><textPath startOffset="22.20632615414155" xlink:href="#id7">July</textPath></text><path d="M 99.81925306533755 120.99922214144158 l -0.10897962845290071 12.661279324310904 a33.66174832665855,33.66174832665855 0 0,0 -0.5793672739972586,-0.009974333037421053 l 0.32690659234282726 -12.657527513994323" fill="#ff970d" stroke="none" /><path d="M 99.09653310690486 120.98055641714683 l -0.7816157663391876 18.150896073270893 a39.16771728833512,39.16771728833512 0 0,0 -0.6733339654331545,-0.03480367491827519 l 1.093937800185831 -18.134752591590416" fill="#ffdf14" stroke="none" /><path d="M 98.73552117531835 120.96189622390904 l -0.7460675228800605 12.367933480086595 a33.39041546182142,33.39041546182142 0 0,0 -0.5734203451712288,-0.03954642427735845 l 0.9588506288302193 -12.353258711292952" fill="#ff930d" stroke="none" /><path d="M 98.01472825383883 120.90594882070398 l -1.1078383272618102 11.666116447853486 a32.71859969169644,32.71859969169644 0 0,0 -0.5602162825640155,-0.058068708273937064 l 1.308487206431419 -11.645318371123789" fill="#ff8a0c" stroke="none" /><path d="M 97.65516085044442 120.86867818915974 l -1.424757882892964 12.680108041183574 a33.759901056080096,33.759901056080096 0 0,0 -0.5769286995012184,-0.06985803098459553 l 1.6428140054455715 -12.65370448147363" fill="#ff980e" stroke="none" /><path d="M 97.2962882734958 120.8252237178851 l -1.9898956166294568 15.327085718982275 a36.45571872162895,36.45571872162895 0 0,0 -0.6216071696166807,-0.08614908961143879 l 2.253431377432969 -15.290562063878232" fill="#ffbc11" stroke="none" /><path d="M 96.93821686468263 120.77559828337769 l -2.1233719018731505 14.408049064832174 a35.563673509395755,35.563673509395755 0 0,0 -0.6048604159948567,-0.0944667573956662 l 2.371068181476524 -14.369364000089401" fill="#ffb010" stroke="none" /><path d="M 96.58105272829116 120.7198165907248 l -0.6040491666774102 3.6607139422423725 a24.710215891655277,24.710215891655277 0 0,0 -0.4190747049981297,-0.0728615091935294 l 0.6669728431475898 -3.649773854527837" fill="#ff1902" stroke="none" /><path d="M 96.22490169976321 120.6578951692458 l -2.5126042643362148 13.749341438659153 a34.97703724635483,34.97703724635483 0 0,0 -0.5913324270851441,-0.11333026703390306 l 2.748904305993054 -13.704053973276782" fill="#ffa80f" stroke="none" /><path d="M 95.86986931433489 120.58985236759428 l -2.334167673875065 11.636476291926122 a32.8682736411966,32.8682736411966 0 0,0 -0.5537655172538466,-0.11604694830181901 l 2.5341246525582983 -11.594573362897762" fill="#ff8c0c" stroke="none" /><path d="M 95.51606077576429 120.51570834832081 l -3.0224540679774363 13.828864097815712 a35.15530680800984,35.15530680800984 0 0,0 -0.5900732043683518,-0.13429874020081603 l 3.260047421738651 -13.774788624037209" fill="#ffab0f" stroke="none" /><path d="M 94.81253420990036 120.34920634021253 l -3.785254851577532 14.848663131822262 a36.32354238072023,36.32354238072023 0 0,0 -0.6045440577620775,-0.15966558027040248 l 4.040289352151099 -14.781306202248278" fill="#ffba11" stroke="none" /><path d="M 94.11515582081647 120.15858648285463 l -6.362878780440922 21.79609829418366 a43.70586107647762,43.70586107647762 0 0,0 -0.7203662991527086,-0.21704045667985256 l 6.737120054033876 -21.683342468398084" fill="#e7ff1a" stroke="none" /><path d="M 93.76903079525671 120.05430185196036 l -2.2136671047147316 7.124661807654261 a28.46063857346966,28.46063857346966 0 0,0 -0.46659001742509676,-0.14938738915240524 l 2.3359784672307686 -7.0855015718421495" fill="#ff4f07" stroke="none" /><path d="M 93.42475214034765 119.94407469862007 l -4.56559718760544 13.84839222748737 a35.58158581793501,35.58158581793501 0 0,0 -0.5800311321700338,-0.19677805230109893 l 4.8032980527127 -13.767751188288148" fill="#ffb010" stroke="none" /><path d="M 92.40401165467489 119.57807347666478 l -4.682607868928367 12.069060239765863 a33.945618236501765,33.945618236501765 0 0,0 -0.5429341774461948,-0.21604471409025877 l 4.889663122416419 -11.986668681269537" fill="#ff9a0e" stroke="none" /><path d="M 92.06813273071674 119.44442032107085 l -4.391354122799693 10.765098865566419 a32.626321198782065,32.626321198782065 0 0,0 -0.5181813948284185,-0.21659986506403517 l 4.576006977125574 -10.68791395748241" fill="#ff890c" stroke="none" /><path d="M 91.7346041902142 119.30500536409082 l -10.268068032379071 23.98253066226294 a47.0882156937562,47.0882156937562 0 0,0 -0.7423778420694984,-0.3254366294895472 l 10.679366549106314 -23.80222947947894" fill="#bfff1e" stroke="none" /><path d="M 91.40352486487194 119.15986991738527 l -0.9776128042542358 2.178908664848058 a23.38817289256699,23.38817289256699 0 0,0 -0.3658934912253878,-0.16796375587910542 l 1.014974291247043 -2.1617578386348777" fill="#ff0600" stroke="none" /><path d="M 90.7491055286396 118.85261126421891 l -6.246021641761206 12.728911601421188 a35.178786157712665,35.178786157712665 0 0,0 -0.5413279656823163,-0.27143307977734 l 6.464203515126283 -12.619510680734546" fill="#ffab0f" stroke="none" /><path d="M 90.42595943632237 118.69057910512821 l -6.611142794875225 12.906367647083476 a35.50108736943246,35.50108736943246 0 0,0 -0.541491488315759,-0.2832827542185797 l 6.83232518571748 -12.79065547392018" fill="#ffaf10" stroke="none" /><path d="M 90.10565033884886 118.52300852407294 l -7.349625251043759 13.75908228797997 a36.599017172186976,36.599017172186976 0 0,0 -0.5531282456419068,-0.30160962181199125 l 7.585376308554306 -13.630532014408212" fill="#ffbe11" stroke="none" /><line stroke="#e1ed5e" stroke-width="0.3" x1="58.666819895761336" x2="56.23545636021788" y1="174.27360380694188" y2="178.64263932499728" /><path d="M 58.180547188652646 175.14741091055294 a86.0,86.0 0 0,1 -31.652253787137756,-30.449443065178592" fill="none" id="id8" stroke="none" /><text fill="#e1ed5e" style="font-size:6.75px; font-family:Arial;" text-anchor="middle"><textPath startOffset="22.20632615414155" xlink:href="#id8">August</textPath></text><path d="M 89.7882731507175 118.34994917583269 l -12.493375575130113 22.449954862858 a46.692117596757555,46.692117596757555 0 0,0 -0.6989392734095589,-0.39687596063647274 l 12.877963615460878 -22.231575736426894" fill="#c4ff1e" stroke="none" /><path d="M 89.4739219176387 118.17145234162733 l -5.635127749963267 9.728072939058835 a32.242333737532206,32.242333737532206 0 0,0 -0.47785000819740814,-0.28232220763042043 l 5.801745629189057 -9.629632159134664" fill="#ff830c" stroke="none" /><path d="M 89.1626897886671 117.98757091392108 l -7.616668864954129 12.642008825487572 a35.759201595684885,35.759201595684885 0 0,0 -0.524503708823082,-0.3221930170910783 l 7.8331517737095195 -12.509027341568116" fill="#ffb310" stroke="none" /><path d="M 88.8546689885994 117.79835938074946 l -15.912213668753028 25.410756946567346 a50.98174632067938,50.98174632067938 0 0,0 -0.7397650413018243,-0.47215305013034514 l 16.347260512101776 -25.133089467613196" fill="#93ff23" stroke="none" /><path d="M 87.95078237400918 117.19931262002967 l -7.155584637461622 10.21403554811003 a33.471123192476774,33.471123192476774 0 0,0 -0.4690303267499636,-0.3346406846085492 l 7.330342292060473 -10.08935060165726" fill="#ff940d" stroke="none" /><path d="M 87.65650970185807 116.9893568818739 l -9.026063997946656 12.423311299789543 a36.35605727218114,36.35605727218114 0 0,0 -0.503124602839014,-0.37219955316981906 l 9.238573571204235 -12.266101797879957" fill="#ffba11" stroke="none" /><path d="M 87.36589467227662 116.77436683061367 l -15.042003163249811 19.97134521064428 a46.002329665172034,46.002329665172034 0 0,0 -0.6284165144433188,-0.481842986220271 l 15.383548406186618 -19.70946288259664" fill="#ccff1d" stroke="none" /><path d="M 87.07902340077011 116.55440617244103 l -8.744982544463257 11.204106121558963 a35.21290658824303,35.21290658824303 0 0,0 -0.4746071128307508,-0.3770565943333885 l 8.936547150011366 -11.051915613220444" fill="#ffab0f" stroke="none" /><path d="M 86.79598089348748 116.32954008644616 l -10.275192151936894 12.70743103198276 a37.3419208537988,37.3419208537988 0 0,0 -0.49634502703882205,-0.4084581662555437 l 10.492407307520406 -12.528677746870036" fill="#ffc712" stroke="none" /><path d="M 86.51685102203217 116.09983520530335 l -9.349398878269842 11.163844696424853 a35.561685609533214,35.561685609533214 0 0,0 -0.4659165439188317,-0.3970641865711901 l 9.540180898765731 -11.001256119630712" fill="#ffb010" stroke="none" /><path d="M 85.97065885151581 115.62618273729859 l -9.435212941150569 10.509143659941087 a35.12322001917888,35.12322001917888 0 0,0 -0.4464001546330302,-0.4077759572117616 l 9.614712645250455 -10.345174936142747" fill="#ffaa0f" stroke="none" /><path d="M 85.70375840098266 115.38237550388516 l -8.507530388589393 9.153876292702778 a33.496860585558196,33.496860585558196 0 0,0 -0.4189726160110845,-0.3961647593906226 l 8.663838838991293 -9.006076896566224" fill="#ff940d" stroke="none" /><path d="M 85.44109423537348 115.13401014063109 l -16.300716688281753 16.94462589760014 a44.51241611066903,44.51241611066903 0 0,0 -0.547608801050467,-0.5359504682024008 l 16.589975441708013 -16.661525326475168" fill="#deff1b" stroke="none" /><path d="M 85.18274418774928 114.88116024355367 l -13.492789696307565 13.55098191915626 a40.12287856893108,40.12287856893108 0 0,0 -0.4852181505875465,-0.49152342479604694 l 13.724048471950644 -13.316718000379549" fill="#ffeb16" stroke="none" /><path d="M 84.9287848128048 114.62390073753433 l -8.812233982379148 8.550686420012724 a33.27883162249519,33.27883162249519 0 0,0 -0.39537383178930136,-0.41454788194733294 l 8.958114365547406 -8.397731421482892" fill="#ff920d" stroke="none" /><path d="M 84.67929136418377 114.36230785411682 l -9.265591620548319 8.685974158776265 a33.70028878276806,33.70028878276806 0 0,0 -0.3930955613771562,-0.42662759455862986 l 9.413733589921204 -8.52519530941629" fill="#ff970d" stroke="none" /><path d="M 84.43433777217949 114.09645910891817 l -7.501414836253755 6.793375440801227 a31.12033469927004,31.12033469927004 0 0,0 -0.35616652575958546,-0.4001568673863137 l 7.617240211661678 -6.663244403674049" fill="#ff740a" stroke="none" /><path d="M 84.19399662182784 113.82643327865904 l -9.228526583816471 8.072730596001254 a33.261104443883596,33.261104443883596 0 0,0 -0.3732489715309441,-0.43417287786898506 l 9.366118064918194 -7.912680618970738" fill="#ff910d" stroke="none" /><path d="M 83.95833913139862 113.55231037782056 l -11.614057435735603 9.811783979488066 a36.20386250203231,36.20386250203231 0 0,0 -0.3980769843344601,-0.4795093716162623 l 11.7812304199636 -9.610413350758042" fill="#ffb811" stroke="none" /><path d="M 83.72743513129214 113.27417163493432 l -12.335204674585563 10.062311954113904 a36.91877495995911,36.91877495995911 0 0,0 -0.39746065368210826,-0.4958932778377318 l 12.506583240322533 -9.848490842697913" fill="#ffc212" stroke="none" /><path d="M 83.50135304334701 112.99209946851258 l -9.148840479520775 7.204387477577823 a32.64493370727365,32.64493370727365 0 0,0 -0.3438493708770009,-0.4444716632201701 l 9.271496667615844 -7.0458378202444" fill="#ff890c" stroke="none" /><path d="M 83.28015986056508 112.70617746262583 l -19.03183466060601 14.463168703787984 a44.90384863370073,44.90384863370073 0 0,0 -0.46237863566986104,-0.6194317433165076 l 19.277974562970954 -14.133424080962168" fill="#d9ff1c" stroke="none" /><path d="M 83.06392112726016 112.41649034213515 l -45.50631760754609 33.36243042595272 a77.42585139920703,77.42585139920703 0 0,0 -0.778757352763613,-1.081625850945777 l 46.07385475268531 -32.5741709695558" fill="#45ffed" stroke="none" /><path d="M 82.85270091963577 112.12312394758628 l -11.600194714526992 8.201326499366035 a35.20655742128062,35.20655742128062 0 0,0 -0.34559275279843005,-0.4978521359316171 l 11.739648374487556 -8.000433101247406" fill="#ffab0f" stroke="none" /><path d="M 82.44556493220864 111.52570212397912 l -22.99571950865146 15.098282124133245 a48.50929368087256,48.50929368087256 0 0,0 -0.45228018017759325,-0.7019488834611501 l 23.252204552206102 -14.700211640750647" fill="#afff20" stroke="none" /><path d="M 82.24976979558568 111.22182372390057 l -19.774574294870565 12.501628677301696 a44.394967581266016,44.394967581266016 0 0,0 -0.4028005307155208,-0.6494427099945278 l 19.986839465254043 -12.159389635941903" fill="#dfff1b" stroke="none" /><path d="M 82.05923443525364 110.91462005526583 l -7.934664163176931 4.827210092828296 a30.28767207984367,30.28767207984367 0 0,0 -0.26713600475084553,-0.447735309596703 l 8.01658104362601 -4.689912689345482" fill="#ff6909" stroke="none" /><line stroke="#e1ed5e" stroke-width="0.3" x1="26.63291911575756" x2="22.317208475507996" y1="142.92168965132927" y2="145.44649492493687" /><path d="M 25.769776987707644 143.4266507060508 a86.0,86.0 0 0,1 -11.730757126820373,-40.83630448921669" fill="none" id="id9" stroke="none" /><text fill="#e1ed5e" style="font-size:6.75px; font-family:Arial;" text-anchor="middle"><textPath startOffset="21.46611528233685" xlink:href="#id9">September</textPath></text><path d="M 81.69416730710424 110.29060199501025 l -8.88823225698567 4.99650915259089 a31.19636093741513,31.19636093741513 0 0,0 -0.2591133946071619,-0.470366075785151 l 8.972922061044349 -4.842772558407916" fill="#ff750a" stroke="none" /><path d="M 81.35079622478065 109.6543875284942 l -21.29902267091888 11.026155396321512 a44.98383767373659,44.98383767373659 0 0,0 -0.350062790036223,-0.6907070952069738 l 21.48566413074137 -10.657894089411855" fill="#d8ff1c" stroke="none" /><path d="M 81.18737489456691 109.33194174019688 l -3.249591441119235 1.6119493073409126 a24.627426788183634,24.627426788183634 0 0,0 -0.18511233887972467,-0.3813862465558911 l 3.2768570366136784 -1.5557741048197367" fill="#ff1802" stroke="none" /><path d="M 80.45479744820244 107.68017299344265 l -13.775160488574079 5.412868722353299 a35.80047952910321,35.80047952910321 0 0,0 -0.2204384188765962,-0.5754951516712957 l 13.866293187044183 -5.174950003848846" fill="#ffb310" stroke="none" /><path d="M 80.32549172779594 107.34259656027581 l -23.644249244839543 8.82411802996558 a46.23718647866396,46.23718647866396 0 0,0 -0.27186527473772754,-0.7480564745888121 l 23.792638780582497 -8.415813758370652" fill="#c9ff1d" stroke="none" /><path d="M 80.20201598880116 107.00284435728193 l -10.940357867604938 3.8697689278092806 a32.60459141141572,32.60459141141572 0 0,0 -0.18259994777772157,-0.5307209213829601 l 11.005348646325888 -3.6808753033370234" fill="#ff880c" stroke="none" /><path d="M 80.0844068197444 106.66101706037122 l -7.3124476487391625 2.4457387786778377 a28.71061144067573,28.71061144067573 0 0,0 -0.1527237036183336,-0.47003522836257994 l 7.353463603373746 -2.3195046503374543" fill="#ff5307" stroke="none" /><path d="M 79.97269907076064 106.31721596034903 l -22.579246589692286 7.122176744286726 a44.675890228985885,44.675890228985885 0 0,0 -0.2250244333657939,-0.735392868065997 l 22.698497795564208 -6.732456903668681" fill="#dcff1b" stroke="none" /><path d="M 79.86692584326677 105.97154293290107 l -6.7467804426147895 2.001119588508422 a28.037295357476587,28.037295357476587 0 0,0 -0.1332537389750102,-0.46387374662023506 l 6.780226818475904 -1.8846883663835912" fill="#ff4906" stroke="none" /><path d="M 79.76711848015287 105.62410040840567 l -29.45797066471913 8.188383087388386 a51.574853282874166,51.574853282874166 0 0,0 -0.23039696185034056,-0.8573928048186996 l 29.594555702911247 -7.680099349394147" fill="#8cff24" stroke="none" /><path d="M 79.67330655649465 105.27499134158121 l -13.732703110139195 3.5637813008704153 a35.18758865599297,35.18758865599297 0 0,0 -0.1470986743445586,-0.5875860828758513 l 13.792013098778812 -3.326867378597172" fill="#ffab0f" stroke="none" /><path d="M 79.58551787078972 104.9243191809786 l -11.90746021594499 2.87228127399898 a33.248983978733825,33.248983978733825 0 0,0 -0.1294168158955115,-0.5575242557251089 l 11.955137597771056 -2.666888360925297" fill="#ff910d" stroke="none" /><path d="M 79.50377843672027 104.57218783832718 l -16.070444178467397 3.584909013715154 a37.46544104267641,37.46544104267641 0 0,0 -0.13499326719556673,-0.6306436027649801 l 16.129771484387405 -3.3077515915340103" fill="#ffc912" stroke="none" /><path d="M 79.4281124754447 104.21870165774334 l -22.208457143581292 4.5543149531473865 a43.670627547351856,43.670627547351856 0 0,0 -0.14467468978399883,-0.7376931263214809 l 22.28356176634096 -4.171358099757951" fill="#e8ff1a" stroke="none" /><path d="M 79.35854240842038 103.8639653848113 l -17.548278300805933 3.284939526025029 a38.85309214148008,38.85309214148008 0 0,0 -0.11739842488096287,-0.658432712818452 l 17.602223168026086 -2.982388062473363" fill="#ffdb14" stroke="none" /><path d="M 79.29508885075956 103.50808413554451 l -15.87064268751732 2.6890021131540793 a37.09683297047572,37.09683297047572 0 0,0 -0.10125358974380452,-0.63050619998878 l 15.914578031622415 -2.4154166834720856" fill="#ffc412" stroke="none" /><path d="M 79.23777060512086 103.15116336523772 l -25.1468914344555 3.8166403776181634 a46.43487551745353,46.43487551745353 0 0,0 -0.11313735579888584,-0.7912824029498658 l 25.208862841270985 -3.383212502687897" fill="#c7ff1e" stroke="none" /><path d="M 79.18660465613746 102.79330883721812 l -30.227712542485317 4.056778587964104 a51.4987222365608,51.4987222365608 0 0,0 -0.11035070363623896,-0.8796036830065997 l 30.293064755368405 -3.5358571506700955" fill="#8dff24" stroke="none" /><path d="M 79.1416061653843 102.43462659150553 l -17.120087500793723 1.9982852279431913 a38.23631456800001,38.23631456800001 0 0,0 -0.0706783681243601,-0.6543939092052234 l 17.151948170419136 -1.7032949968531859" fill="#ffd313" stroke="none" /><path d="M 79.10278846688536 102.07522291339032 l -14.825581238856012 1.4722723097505033 a35.898504784842586,35.898504784842586 0 0,0 -0.05577158150737296,-0.6154347545629372 l 14.84872741664046 -1.216856166639" fill="#ffb410" stroke="none" /><path d="M 79.07016306316243 101.71520430193888 l -23.105928495033876 1.893535438167749 a44.1833864668908,44.1833864668908 0 0,0 -0.05559414858661375,-0.7585379877076006 l 23.135099202284824 -1.4955243139633876" fill="#e1ff1b" stroke="none" /><path d="M 79.04373962182676 101.35467743843564 l -31.317441159063936 2.0244561864628756 a52.382806496588856,52.382806496588856 0 0,0 -0.05042131762135122,-0.900306497254605 l 31.34764882757282 -1.4850779728728332" fill="#84ff25" stroke="none" /><path d="M 79.0235259727143 100.99374915477108 l -16.321480250162605 0.7732213327232239 a37.33978545715415,37.33978545715415 0 0,0 -0.024889397913995515,-0.6422847666066642 l 16.3323717809278 -0.4921593191025629" fill="#ffc712" stroke="none" /><path d="M 79.0095281055655 100.63252640178507 l -23.447244389917888 0.7065587281847824 a44.4578876865951,44.4578876865951 0 0,0 -0.01646622207539598,-0.7651206370663857 l 23.45593267467829 -0.3028482753282678" fill="#deff1b" stroke="none" /><line stroke="#e1ed5e" stroke-width="0.3" x1="15.007084014347285" x2="10.007500721073583" y1="101.09737516637583" y2="101.16192664675087" /><path d="M 14.007167355692545 101.11028546245083 a86.0,86.0 0 0,1 10.666146001902534,-42.60595125391555" fill="none" id="id10" stroke="none" /><text fill="#e1ed5e" style="font-size:6.75px; font-family:Arial;" text-anchor="middle"><textPath startOffset="22.20632615414155" xlink:href="#id10">October</textPath></text><path d="M 79.00019446554 99.90962569577889 l -12.148514909301014 -0.052282083300549835 a33.14862740879575,33.14862740879575 0 0,0 0.007366876579730902,-0.5705727096829767 l 12.145815025603568 0.2613910510439985" fill="#ff900d" stroke="none" /><path d="M 79.00486145842228 99.54816195383935 l -16.87931196592293 -0.363261015120958 a37.88322039801814,37.88322039801814 0 0,0 0.019642098985607665,-0.6518256400705875 l 16.87055817248168 0.65375680261654" fill="#ffce13" stroke="none" /><path d="M 79.01574976396665 99.18683210126434 l -17.17893829323393 -0.6657069467476536 a38.19183197398367,38.19183197398367 0 0,0 0.03111068762035006,-0.6566974449297972 l 17.164933997380082 0.9613154983004599" fill="#ffd213" stroke="none" /><path d="M 79.03285615573316 98.82574320788736 l -20.712249993019096 -1.15998156043023 a41.744706722290815,41.744706722290815 0 0,0 0.04635532806942486,-0.7170964078801323 l 20.68921407394526 1.516337032563374" fill="#ffff18" stroke="none" /><path d="M 79.05617556472873 98.46500227214037 l -28.180415238495247 -2.0653760489121917 a49.256000800492544,49.256000800492544 0 0,0 0.06925280231532416,-0.8450595991628567 l 28.140687952360423 2.5501495652828265" fill="#a6ff21" stroke="none" /><path d="M 79.08570108090925 98.10471618934814 l -25.237620567077034 -2.287069428681326 a46.34103743849802,46.34103743849802 0 0,0 0.07883024077002859,-0.7938097666271346 l 25.194513200624776 2.7211547260128905" fill="#c8ff1d" stroke="none" /><path d="M 79.12142395522702 97.74499172005258 l -11.57573166901914 -1.250246698055964 a32.643052884837914,32.643052884837914 0 0,0 0.06514565825184455,-0.5581282161187494 l 11.552495657763707 1.4493186524995751" fill="#ff890c" stroke="none" /><path d="M 79.16333360222342 97.38593545837743 l -13.25461400118623 -1.662857954912217 a34.358513723414625,34.358513723414625 0 0,0 0.07867118124990938,-0.5861916790961498 l 13.224026820878485 1.8907679760730263" fill="#ffa00e" stroke="none" /><path d="M 79.21141760316559 97.0276538004421 l -32.66794918340446 -4.670855027489943 a54.000178644021375,54.000178644021375 0 0,0 0.13948530688871486,-0.9190338942075635 l 32.582707983076446 5.232488034089599" fill="#72ff27" stroke="none" /><path d="M 79.26566170972629 96.67025291283419 l -23.11585703022308 -3.712197444460165 a44.4120322934249,44.4120322934249 0 0,0 0.12771237887160333,-0.7537656894834774 l 23.048532789831253 4.109548922259471" fill="#dfff1b" stroke="none" /><path d="M 79.32604984820605 96.31383870115002 l -11.668908884900443 -2.0805641890161137 a32.85293980026579,32.85293980026579 0 0,0 0.10405664324988449,-0.5558747490874668 l 11.631366517740696 2.2811170155661533" fill="#ff8c0c" stroke="none" /><path d="M 79.46518482838121 95.60439243477599 l -36.91855728231036 -7.902651586149461 a58.75489072821297,58.75489072821297 0 0,0 0.2202066519710619,-0.9871432426009633 l 36.777056243337256 8.536972998300383" fill="#41ff2d" stroke="none" /><path d="M 79.54389044137918 95.25157060432595 l -18.832621682959175 -4.371572910318386 a40.333346558826634,40.333346558826634 0 0,0 0.16280689732865888,-0.6749396970176822 l 18.7545819853697 4.695097838995465" fill="#ffed16" stroke="none" /><path d="M 79.62865764111835 94.90015583598534 l -25.75263387712572 -6.4470184277770715 a47.547357650383596,47.547357650383596 0 0,0 0.2055940230728207,-0.7922376379797998 l 25.637843522182592 6.889352491305735" fill="#baff1f" stroke="none" /><path d="M 79.71946130924805 94.55025226153421 l -23.041300624872708 -6.191614428317465 a44.858701216007304,44.858701216007304 0 0,0 0.206805511091447,-0.7439894560401086 l 22.931308343214898 6.5873151877765155" fill="#d9ff1c" stroke="none" /><path d="M 79.81627453868168 94.20196356495316 l -13.986218319162166 -4.017722276218736 a35.55185194949741,35.55185194949741 0 0,0 0.17402479653171424,-0.5867251015444553 l 13.914987625518744 4.257876764509731" fill="#ffb010" stroke="none" /><path d="M 79.91906864156998 93.8553929516997 l -16.86383891448124 -5.160202064622953 a38.63566693610737,38.63566693610737 0 0,0 0.20006747191713323,-0.6342685593441665 l 16.7725159587959 5.449720790393534" fill="#ffd814" stroke="none" /><path d="M 80.02781315780177 93.51064311812611 l -12.142702588468548 -3.9454032364917233 a33.767593071934904,33.767593071934904 0 0,0 0.18437540973531455,-0.5512590073634825 l 12.072989884961462 4.153835346777528" fill="#ff980e" stroke="none" /><path d="M 80.14247586403 93.16781622104843 l -34.31888122776758 -11.80776123098821 a57.2933717641892,57.2933717641892 0 0,0 0.32888283124720263,-0.929796051774203 l 34.11054531571057 12.396754909189022" fill="#50ff2b" stroke="none" /><path d="M 80.2630227832202 92.82701384747504 l -12.0382023691484 -4.375029567434595 a33.808559637855346,33.808559637855346 0 0,0 0.20348794321876149,-0.5452465199859654 l 11.961109837428012 4.581599224449902" fill="#ff990e" stroke="none" /><path d="M 80.38941819471856 92.48833698450439 l -13.109539767490821 -5.021495333458649 a35.03835632470448,35.03835632470448 0 0,0 0.22058555750807504,-0.5613661834411259 l 13.021160660101055 5.246410521795538" fill="#ffa90f" stroke="none" /><path d="M 80.52162464483688 92.15188598940014 l -7.827106445607772 -3.1536523266530065 a29.438549538177675,29.438549538177675 0 0,0 0.19342292408546663,-0.468388952841671 l 7.771661834636106 3.287915849947989" fill="#ff5d08" stroke="none" /><path d="M 80.65960295795068 91.81776055985345 l -14.748025093587023 -6.239368939668476 a37.013555786469546,37.013555786469546 0 0,0 0.2532948489653274,-0.5846394341077894 l 14.638439534779016 6.492307518362865" fill="#ffc312" stroke="none" /><path d="M 80.803312248108 91.48605970444005 l -21.46538880152694 -9.52013394389713 a44.481819919045044,44.481819919045044 0 0,0 0.31645146824565534,-0.6972588630476192 l 21.298335016317935 9.888214815786819" fill="#deff1b" stroke="none" /><path d="M 80.95270993114464 91.15688171328213 l -21.055068090150403 -9.775272859447147 a44.213613500649004,44.213613500649004 0 0,0 0.3264265949487305,-0.6875376581226234 l 20.88368330135992 10.136252933210303" fill="#e1ff1b" stroke="none" /><path d="M 81.10775173730289 90.83032412892265 l -11.10439735859594 -5.3897092133297795 a33.343281820563135,33.343281820563135 0 0,0 0.2550602076069509,-0.5141858145507744 l 11.009977138035575 5.580054616379515" fill="#ff920d" stroke="none" /><path d="M 81.26839172434947 90.50648371742162 l -41.728142488624535 -21.14857380785954 a67.78140709360328,67.78140709360328 0 0,0 0.5364109745757618,-1.0361752666963544 l 41.35792208088866 21.863721796816233" fill="#39ff85" stroke="none" /><path d="M 81.43458229118936 90.18545643968196 l -10.681520653757993 -5.646748777270614 a33.08224545480954,33.08224545480954 0 0,0 0.2704739811551105,-0.5011472092017992 l 10.58273857338441 5.829776969804886" fill="#ff8f0d" stroke="none" /><path d="M 81.6062741919709 89.86733742301443 l -21.22174142651682 -11.690548582444709 a45.228727480667246,45.228727480667246 0 0,0 0.38152016510796455,-0.6786818025630483 l 21.017363620116424 12.05411389494254" fill="#d5ff1c" stroke="none" /><line stroke="#e1ed5e" stroke-width="0.3" x1="26.266209847984243" x2="21.928928074336255" y1="57.711370442889674" y2="55.22380399835377" /><path d="M 25.398753493254645 57.213857153982495 a86.0,86.0 0 0,1 29.58750427330803,-30.492523968695096" fill="none" id="id11" stroke="none" /><text fill="#e1ed5e" style="font-size:6.75px; font-family:Arial;" text-anchor="middle"><textPath startOffset="21.46611528233685" xlink:href="#id11">November</textPath></text><path d="M 81.78341655067845 89.55222093294921 l -20.3775374732289 -11.687153633563112 a44.49113861709039,44.49113861709039 0 0,0 0.386734615540456,-0.6610548198261429 l 20.17334318321812 12.036187865743146" fill="#deff1b" stroke="none" /><path d="M 81.96595687620814 89.24020034530311 l -24.412540469865856 -14.565455051585035 a49.42753265854394,49.42753265854394 0 0,0 0.4422215483920223,-0.726895951229437 l 24.15820312318762 14.983518776021548" fill="#a4ff21" stroke="none" /><path d="M 82.15384107792192 88.93136811851018 l -12.115729873801616 -7.514477178771167 a35.256867736119375,35.256867736119375 0 0,0 0.3243168518773497,-0.5129913748095265 l 11.984585425678302 7.721916201294909" fill="#ffac0f" stroke="none" /><path d="M 82.34701348167596 88.62581576622439 l -12.88277226893558 -8.300636556683903 a36.32535117311877,36.32535117311877 0 0,0 0.34319389974056586,-0.5227078544849597 l 12.737981733837096 8.521162475146529" fill="#ffba11" stroke="none" /><path d="M 82.54541684631803 88.32363383020206 l -25.42047256820979 -17.005203922793694 a51.58394000201584,51.58394000201584 0 0,0 0.5000584832772387,-0.7337741202334497 l 25.12398961926381 17.440256066297557" fill="#8cff24" stroke="none" /><path d="M 82.7489923806493 88.02491185347247 l -5.2399505059509 -3.6374031347489058 a27.378697584107297,27.378697584107297 0 0,0 0.27207565104805903,-0.38483171344088674 l 5.176562235098963 3.7270613485215787" fill="#ff4006" stroke="none" /><path d="M 82.95767976084542 87.72973835380427 l -18.886135919881465 -13.59778633252915 a44.271998692191296,44.271998692191296 0 0,0 0.4505991113937527,-0.6146166815476175 l 18.649274195974076 13.920865457748269" fill="#e0ff1b" stroke="none" /><path d="M 83.39014120810768 87.1503855733568 l -13.131639863949596 -10.158816589317071 a37.60245524047133,37.60245524047133 0 0,0 0.4004588416275839,-0.5085420616349494 l 12.954826941728042 10.38335104490507" fill="#ffcb12" stroke="none" /><path d="M 83.6137871275137 86.86637796730984 l -18.282711232788017 -14.65367384964426 a44.43048627991449,44.43048627991449 0 0,0 0.4834491958447435,-0.5926515504292836 l 18.027763544866882 14.966209569681626" fill="#dfff1b" stroke="none" /><path d="M 83.84228863543731 86.58626213691792 l -26.868569041884026 -22.305630652272097 a55.92078408561396,55.92078408561396 0 0,0 0.6212250196500889,-0.7353344788078504 l 26.480633408746815 22.76482408070906" fill="#5eff2a" stroke="none" /><path d="M 84.07557802195018 86.31012108654704 l -10.620530382530694 -9.130238769978835 a35.00560336447817,35.00560336447817 0 0,0 0.39674373433869614,-0.453546672438306 l 10.461794784614154 9.311700998620084" fill="#ffa90f" stroke="none" /><path d="M 84.31358615837235 86.03803664274999 l -5.52947663541662 -4.921606107546522 a28.402521093482783,28.402521093482783 0 0,0 0.32819296980335816,-0.36239887435792156 l 5.443940024997217 5.016057769173999" fill="#ff4e07" stroke="none" /><path d="M 84.5562425177563 85.77008943001954 l -12.237621435806663 -11.275770085163579 a37.640383692078274,37.640383692078274 0 0,0 0.4431396601072424,-0.47271049238313023 l 12.041714453728964 11.484749994424758" fill="#ffcb12" stroke="none" /><path d="M 84.80347519578584 85.50635884689758 l -7.688753472210568 -7.3331261703983275 a31.625049147529197,31.625049147529197 0 0,0 0.3791026205989681,-0.39069857458838636 l 7.561386587908482 7.464388940536837" fill="#ff7b0b" stroke="none" /><path d="M 85.05521093208273 85.24692304244772 l -3.8104384540732283 -3.7615580587644386 a26.35432164160276,26.35432164160276 0 0,0 0.32147779597402054,-0.320097268152801 l 3.7451248579318945 3.826591177567349" fill="#ff3104" stroke="none" /><path d="M 85.31137513191541 84.99185889309783 l -11.638029990539755 -11.891187764206043 a37.63863241087759,37.63863241087759 0 0,0 0.4669283062164755,-0.44918466063343243 l 11.431618440710851 12.089755511601789" fill="#ffcb12" stroke="none" /><path d="M 85.57189188830299 84.74124197986013 l -43.28432433509105 -45.776274060419595 a84.0,84.0 0 0,0 1.0591684648205755,-0.98438165570141 l 42.48994798647562 46.514560302195655" fill="#4dd2ff" stroke="none" /><path d="M 85.83668400450813 84.49514656593479 l -9.658234783785579 -10.573054700046985 a35.320299746475676,35.320299746475676 0 0,0 0.4524177403151788,-0.40618511425428894 l 9.47480605587443 10.737738823070552" fill="#ffad10" stroke="none" /><path d="M 86.10567301691215 84.25364557470407 l -9.680772315693487 -10.971159105370738 a35.63159884440715,35.63159884440715 0 0,0 0.46339098135895485,-0.40184809270392713 l 9.490487535687757 11.136172191494346" fill="#ffb110" stroke="none" /><path d="M 86.37877921826538 84.01681056812374 l -7.84371847544044 -9.203847456270879 a33.09275516663881,33.09275516663881 0 0,0 0.4367336988424479,-0.3657519129917525 l 7.684127239638881 9.337500526656443" fill="#ff8f0d" stroke="none" /><path d="M 86.65592168130627 83.78471172551755 l -14.795728078719954 -17.979285664952858 a44.28450734719121,44.28450734719121 0 0,0 0.5927725957876598,-0.4793142145561052 l 14.484052084367793 18.231305976773097" fill="#e0ff1b" stroke="none" /><path d="M 86.93701828274178 83.55741782278169 l -1.2501406880833796 -1.5735719027868003 a23.009721441703217,23.009721441703217 0 0,0 0.31223912027312106,-0.24370758602802864 l 1.222869012650833 1.5948578780380507" fill="#ff0000" stroke="none" /><path d="M 87.22198572758235 83.33499621200491 l -26.671994151234717 -34.78544272118819 a64.83403126923832,64.83403126923832 0 0,0 0.8914798045876848,-0.6714441065008587 l 26.069268192888643 35.2394034171949" fill="#35ff63" stroke="none" /><path d="M 87.80319425747018 82.90503203632743 l -26.997907086294283 -37.840100635289815 a67.48397791851554,67.48397791851554 0 0,0 0.9514240208903013,-0.6665333281373108 l 26.34255192582032 38.29921880619107" fill="#38ff82" stroke="none" /><path d="M 88.09926311788651 82.69761687909137 l -4.32555962905649 -6.288895440311532 a28.632867872804724,28.632867872804724 0 0,0 0.40848918097000514,-0.27581371844736413 l 4.216665753679945 6.362421071057562" fill="#ff5107" stroke="none" /><path d="M 88.39885842347998 82.49532879139004 l -4.995829354169295 -7.538081462263137 a30.043283865261266,30.043283865261266 0 0,0 0.4335288411855742,-0.28197921769635614 l 4.865333487199433 7.622959604119028" fill="#ff6509" stroke="none" /><line stroke="#e1ed5e" stroke-width="0.3" x1="56.762969772571076" x2="54.21961505331055" y1="26.818313649435495" y2="22.513508569990535" /><path d="M 56.25429882871897 25.957352633546506 a86.0,86.0 0 0,1 42.265352541879196,-11.944610805530505" fill="none" id="id12" stroke="none" /><text fill="#e1ed5e" style="font-size:6.75px; font-family:Arial;" text-anchor="middle"><textPath startOffset="22.20632615414155" xlink:href="#id12">December</textPath></text><path d="M 89.3179101791058 81.91981866633112 l -15.57280061519398 -26.358050130326266 a51.614684804410096,51.614684804410096 0 0,0 0.7688210504567651,-0.4453507763896293 l 15.116782832271895 26.622205064105945" fill="#8cff24" stroke="none" /><path d="M 90.26544431104013 81.39251694778311 l -5.66527631658214 -10.829105756360569 a33.22149283948848,33.22149283948848 0 0,0 0.5089841384643048,-0.2607214447726089 l 5.478031690529071 10.925019726445683" fill="#ff910d" stroke="none" /><path d="M 90.58718382345135 81.22770947309562 l -4.1885264629114465 -8.353316814716678 a30.34460570262533,30.34460570262533 0 0,0 0.46893792579720006,-0.2301058036136336 l 4.04411727010382 8.42417777846514" fill="#ff6909" stroke="none" /><path d="M 90.91171255644093 81.06846463323043 l -5.298613796335549 -11.037381366196843 a33.243328615437335,33.243328615437335 0 0,0 0.5179972119951579,-0.24320663661603084 l 5.107838373040782 11.126952985452881" fill="#ff910d" stroke="none" /><path d="M 91.56875222667455 80.76684994638697 l -6.960447269206585 -15.877996990249736 a38.33662639067316,38.33662639067316 0 0,0 0.6066611248164477,-0.25974063329425173 l 6.6861023865998295 15.995457151506773" fill="#ffd413" stroke="none" /><path d="M 92.23578459929587 80.48803036053334 l -22.896472952195214 -57.5403002154714 a82.9284637508245,82.9284637508245 0 0,0 1.330870875463902,-0.5163572233603918 l 21.902618911731636 57.92590014272234" fill="#4cdcff" stroke="none" /><path d="M 92.57280143429618 80.3572730644239 l -6.877296884848991 -18.188400857864462 a40.44518290499522,40.44518290499522 0 0,0 0.6533200418445482,-0.24062328500598554 l 6.5631945172318735 18.30408741067677" fill="#ffef16" stroke="none" /><path d="M 93.59665428221793 80.00007090966166 l -4.880923709190728 -15.24486297968895 a37.0071628817986,37.0071628817986 0 0,0 0.6083530448225456,-0.1890182523372446 l 4.617785291657453 15.32662136690872" fill="#ffc312" stroke="none" /><path d="M 93.94186890950719 79.89281104454417 l -3.7939399450115525 -12.592244410114507 a34.151372536371035,34.151372536371035 0 0,0 0.5643266832520211,-0.1647424336978305 l 3.57662304403611 12.655685172731037" fill="#ff9d0e" stroke="none" /><path d="M 94.28887869178378 79.79150937346287 l -16.792523438547843 -59.419426447061355 a82.746717181822,82.746717181822 0 0,0 1.3739978543385238,-0.37556551666036314 l 15.767227694985596 59.69967850454802" fill="#4bdeff" stroke="none" /><path d="M 94.63758080256005 79.69619591428918 l -0.8960726242586213 -3.3928125235344497 a24.509148467619735,24.509148467619735 0 0,0 0.4088255644812791,-0.10421873926718764 l 0.8375381710923429 3.4077342589705" fill="#ff1602" stroke="none" /><path d="M 95.33964822691252 79.52364482259891 l -3.203440359182667 -14.075071105799607 a35.435014955591676,35.435014955591676 0 0,0 0.5959111119664762,-0.13024308806393883 l 2.96068652306267 14.128127691959415" fill="#ffae10" stroke="none" /><path d="M 95.692805502759 79.44645832069477 l -5.081011170305476 -24.246124694109806 a45.7727922769132,45.7727922769132 0 0,0 0.7725435769248226,-0.15496497381848257 l 4.662901183913517 24.3299936240055" fill="#cfff1d" stroke="none" /><path d="M 96.40284397218896 79.31037775812273 l -2.7964830055622305 -16.084422400248336 a37.32571472095506,37.32571472095506 0 0,0 0.633952014331263,-0.104607514275123 l 2.519201785092082 16.13017617746309" fill="#ffc712" stroke="none" /><path d="M 97.11714578562143 79.19881850522333 l -1.5728404284586686 -11.348801146971484 a32.457273431619555,32.457273431619555 0 0,0 0.5540692608585158,-0.07193409195369949 l 1.377256439092295 11.37419356208932" fill="#ff860c" stroke="none" /><path d="M 97.47563105711357 79.15227682838746 l -2.357193778845402 -19.4670923605271 a40.609284726484034,40.609284726484034 0 0,0 0.6946765343051104,-0.0780550027726436 l 2.0217505410305736 19.504783316770343" fill="#fff116" stroke="none" /><path d="M 97.83486435360386 79.11191278185805 l -1.504222933629826 -14.511949810390918 a35.58970095421297,35.58970095421297 0 0,0 0.6098971003711375,-0.05791707861798989 l 1.2542007061684521 14.535692433524089" fill="#ffb010" stroke="none" /><path d="M 98.55514903715128 79.0497635885617 l -0.6634631460915806 -9.620168528309748 a30.643019540543463,30.643019540543463 0 0,0 0.5265316375417667,-0.0317618262720484 l 0.497769459710191 9.630163623962101" fill="#ff6e0a" stroke="none" /></svg>